<svg width="82" height="80" viewBox="0 0 82 80" fill="none" xmlns="http://www.w3.org/2000/svg">
<g id="Group 27">
<circle id="Ellipse 11" cx="3.72727" cy="3.72727" r="3.72727" fill="#09847A"/>
<circle id="Ellipse 31" cx="78.2727" cy="3.72727" r="3.72727" fill="#09847A"/>
<circle id="Ellipse 21" cx="41" cy="3.72727" r="3.72727" fill="#09847A"/>
<circle id="Ellipse 16" cx="22.3636" cy="3.72727" r="3.72727" fill="#09847A"/>
<circle id="Ellipse 22" cx="59.6364" cy="3.72727" r="3.72727" fill="#09847A"/>
<circle id="Ellipse 12" cx="3.72727" cy="21.6181" r="3.72727" fill="#09847A"/>
<circle id="Ellipse 35" cx="78.2727" cy="21.6181" r="3.72727" fill="#09847A"/>
<circle id="Ellipse 23" cx="41" cy="21.6181" r="3.72727" fill="#09847A"/>
<circle id="Ellipse 17" cx="22.3636" cy="21.6181" r="3.72727" fill="#09847A"/>
<circle id="Ellipse 24" cx="59.6364" cy="21.6181" r="3.72727" fill="#09847A"/>
<circle id="Ellipse 13" cx="3.72727" cy="39.5091" r="3.72727" fill="#09847A"/>
<circle id="Ellipse 39" cx="78.2727" cy="39.5091" r="3.72727" fill="#09847A"/>
<circle id="Ellipse 25" cx="41" cy="39.5091" r="3.72727" fill="#09847A"/>
<circle id="Ellipse 18" cx="22.3636" cy="39.5091" r="3.72727" fill="#09847A"/>
<circle id="Ellipse 26" cx="59.6364" cy="39.5091" r="3.72727" fill="#09847A"/>
<circle id="Ellipse 14" cx="3.72727" cy="57.4" r="3.72727" fill="#09847A"/>
<circle id="Ellipse 43" cx="78.2727" cy="57.4" r="3.72727" fill="#09847A"/>
<circle id="Ellipse 27" cx="41" cy="57.4" r="3.72727" fill="#09847A"/>
<circle id="Ellipse 19" cx="22.3636" cy="57.4" r="3.72727" fill="#09847A"/>
<circle id="Ellipse 28" cx="59.6364" cy="57.4" r="3.72727" fill="#09847A"/>
<circle id="Ellipse 15" cx="3.72727" cy="75.2909" r="3.72727" fill="#09847A"/>
<circle id="Ellipse 47" cx="78.2727" cy="75.2909" r="3.72727" fill="#09847A"/>
<circle id="Ellipse 29" cx="41" cy="75.2909" r="3.72727" fill="#09847A"/>
<circle id="Ellipse 20" cx="22.3636" cy="75.2909" r="3.72727" fill="#09847A"/>
<circle id="Ellipse 30" cx="59.6364" cy="75.2909" r="3.72727" fill="#09847A"/>
</g>
</svg>
