<svg width="71" height="68" viewBox="0 0 71 68" fill="none" xmlns="http://www.w3.org/2000/svg">
<g id="Group 2">
<circle id="Ellipse 11" cx="3.20755" cy="3.20755" r="3.20755" fill="#614641" fill-opacity="0.44"/>
<circle id="Ellipse 31" cx="67.3585" cy="3.20755" r="3.20755" fill="#614641" fill-opacity="0.44"/>
<circle id="Ellipse 21" cx="35.283" cy="3.20755" r="3.20755" fill="#614641" fill-opacity="0.44"/>
<circle id="Ellipse 16" cx="19.2453" cy="3.20755" r="3.20755" fill="#614641" fill-opacity="0.44"/>
<circle id="Ellipse 22" cx="51.3208" cy="3.20755" r="3.20755" fill="#614641" fill-opacity="0.44"/>
<circle id="Ellipse 12" cx="3.20755" cy="18.6037" r="3.20755" fill="#614641" fill-opacity="0.44"/>
<circle id="Ellipse 35" cx="67.3585" cy="18.6037" r="3.20755" fill="#614641" fill-opacity="0.44"/>
<circle id="Ellipse 23" cx="35.283" cy="18.6037" r="3.20755" fill="#614641" fill-opacity="0.44"/>
<circle id="Ellipse 17" cx="19.2453" cy="18.6037" r="3.20755" fill="#614641" fill-opacity="0.44"/>
<circle id="Ellipse 24" cx="51.3208" cy="18.6037" r="3.20755" fill="#614641" fill-opacity="0.44"/>
<circle id="Ellipse 13" cx="3.20755" cy="34" r="3.20755" fill="#614641" fill-opacity="0.44"/>
<circle id="Ellipse 39" cx="67.3585" cy="34" r="3.20755" fill="#614641" fill-opacity="0.44"/>
<circle id="Ellipse 25" cx="35.283" cy="34" r="3.20755" fill="#614641" fill-opacity="0.44"/>
<circle id="Ellipse 18" cx="19.2453" cy="34" r="3.20755" fill="#614641" fill-opacity="0.44"/>
<circle id="Ellipse 26" cx="51.3208" cy="34" r="3.20755" fill="#614641" fill-opacity="0.44"/>
<circle id="Ellipse 14" cx="3.20755" cy="49.3961" r="3.20755" fill="#614641" fill-opacity="0.44"/>
<circle id="Ellipse 43" cx="67.3585" cy="49.3961" r="3.20755" fill="#614641" fill-opacity="0.44"/>
<circle id="Ellipse 27" cx="35.283" cy="49.3961" r="3.20755" fill="#614641" fill-opacity="0.44"/>
<circle id="Ellipse 19" cx="19.2453" cy="49.3961" r="3.20755" fill="#614641" fill-opacity="0.44"/>
<circle id="Ellipse 28" cx="51.3208" cy="49.3961" r="3.20755" fill="#614641" fill-opacity="0.44"/>
<circle id="Ellipse 15" cx="3.20755" cy="64.7925" r="3.20755" fill="#614641" fill-opacity="0.44"/>
<circle id="Ellipse 47" cx="67.3585" cy="64.7925" r="3.20755" fill="#614641" fill-opacity="0.44"/>
<circle id="Ellipse 29" cx="35.283" cy="64.7925" r="3.20755" fill="#614641" fill-opacity="0.44"/>
<circle id="Ellipse 20" cx="19.2453" cy="64.7925" r="3.20755" fill="#614641" fill-opacity="0.44"/>
<circle id="Ellipse 30" cx="51.3208" cy="64.7925" r="3.20755" fill="#614641" fill-opacity="0.44"/>
</g>
</svg>
