<svg width="82" height="80" viewBox="0 0 82 80" fill="none" xmlns="http://www.w3.org/2000/svg">
<circle cx="3.72727" cy="4.21824" r="3.72727" fill="#FFBF44"/>
<circle cx="78.2727" cy="4.21824" r="3.72727" fill="#FFBF44"/>
<circle cx="41" cy="4.21824" r="3.72727" fill="#FFBF44"/>
<circle cx="22.3636" cy="4.21824" r="3.72727" fill="#FFBF44"/>
<circle cx="59.6364" cy="4.21824" r="3.72727" fill="#FFBF44"/>
<circle cx="3.72727" cy="22.1091" r="3.72727" fill="#FFBF44"/>
<circle cx="78.2727" cy="22.1091" r="3.72727" fill="#FFBF44"/>
<circle cx="41" cy="22.1091" r="3.72727" fill="#FFBF44"/>
<circle cx="22.3636" cy="22.1091" r="3.72727" fill="#FFBF44"/>
<circle cx="59.6364" cy="22.1091" r="3.72727" fill="#FFBF44"/>
<circle cx="3.72727" cy="40.0001" r="3.72727" fill="#FFBF44"/>
<circle cx="78.2727" cy="40.0001" r="3.72727" fill="#FFBF44"/>
<circle cx="41" cy="40.0001" r="3.72727" fill="#FFBF44"/>
<circle cx="22.3636" cy="40.0001" r="3.72727" fill="#FFBF44"/>
<circle cx="59.6364" cy="40.0001" r="3.72727" fill="#FFBF44"/>
<circle cx="3.72727" cy="57.891" r="3.72727" fill="#FFBF44"/>
<circle cx="78.2727" cy="57.891" r="3.72727" fill="#FFBF44"/>
<circle cx="41" cy="57.891" r="3.72727" fill="#FFBF44"/>
<circle cx="22.3636" cy="57.891" r="3.72727" fill="#FFBF44"/>
<circle cx="59.6364" cy="57.891" r="3.72727" fill="#FFBF44"/>
<circle cx="3.72727" cy="75.7818" r="3.72727" fill="#FFBF44"/>
<circle cx="78.2727" cy="75.7818" r="3.72727" fill="#FFBF44"/>
<circle cx="41" cy="75.7818" r="3.72727" fill="#FFBF44"/>
<circle cx="22.3636" cy="75.7818" r="3.72727" fill="#FFBF44"/>
<circle cx="59.6364" cy="75.7818" r="3.72727" fill="#FFBF44"/>
</svg>
